<svg width="44" height="41" viewBox="0 0 44 41" fill="none" xmlns="http://www.w3.org/2000/svg">
<path d="M16.3996 34.1664C16.3996 33.8039 16.5436 33.4563 16.7999 33.2C17.0562 32.9437 17.4038 32.7997 17.7663 32.7997H25.9663C26.3288 32.7997 26.6764 32.9437 26.9327 33.2C27.189 33.4563 27.333 33.8039 27.333 34.1664C27.333 34.5289 27.189 34.8765 26.9327 35.1328C26.6764 35.3891 26.3288 35.5331 25.9663 35.5331H17.7663C17.4038 35.5331 17.0562 35.3891 16.7999 35.1328C16.5436 34.8765 16.3996 34.5289 16.3996 34.1664ZM8.19965 22.0359C8.19965 18.4771 11.5753 15.7574 15.115 16.0882C19.6061 16.5073 24.1265 16.5073 28.6176 16.0882C32.1573 15.7574 35.5329 18.4771 35.5329 22.0359V25.1984C35.5441 25.8031 35.3399 26.3922 34.9569 26.8603C34.5739 27.3284 34.0369 27.6452 33.4419 27.754C31.1323 28.1558 27.046 28.6997 21.8663 28.6997C16.6866 28.6997 12.6003 28.1531 10.2907 27.754C9.69565 27.6452 9.1587 27.3284 8.77567 26.8603C8.39265 26.3922 8.18849 25.8031 8.19965 25.1984V22.0359ZM20.6144 19.7754C20.5079 19.7573 20.3986 19.7647 20.2955 19.797C20.1924 19.8293 20.0984 19.8856 20.0213 19.9613L17.5066 22.4213C15.7962 22.3193 14.0903 22.1525 12.3926 21.9211C12.2166 21.9036 12.0408 21.955 11.9019 22.0645C11.7631 22.1739 11.6721 22.3329 11.648 22.5081C11.624 22.6832 11.6687 22.8609 11.7729 23.0037C11.8771 23.1466 12.0326 23.2435 12.2067 23.2741C13.71 23.4818 15.5742 23.6814 17.728 23.8016C17.8229 23.807 17.9178 23.7925 18.0068 23.7591C18.0957 23.7256 18.1768 23.674 18.2446 23.6076L20.3056 21.5958L22.6207 26.2698C22.6695 26.3679 22.7411 26.4528 22.8295 26.5174C22.918 26.5819 23.0206 26.6243 23.1289 26.6409C23.2371 26.6576 23.3478 26.6479 23.4515 26.6128C23.5553 26.5777 23.649 26.5182 23.725 26.4393L26.2724 23.788C28.0295 23.6836 29.7819 23.5122 31.5259 23.2741C31.7 23.2435 31.8555 23.1466 31.9597 23.0037C32.0639 22.8609 32.1086 22.6832 32.0846 22.5081C32.0605 22.3329 31.9695 22.1739 31.8306 22.0645C31.6918 21.955 31.5159 21.9036 31.34 21.9211C29.8695 22.1234 28.0409 22.3174 25.928 22.4377C25.756 22.4473 25.5939 22.5215 25.4743 22.6454L23.4134 24.7911L21.1119 20.1444C21.0639 20.0481 20.9938 19.9645 20.9074 19.9003C20.8209 19.8362 20.7206 19.7934 20.6144 19.7754Z" fill="#141718"/>
<path d="M23.2333 5.10046C23.7544 4.79961 24.1616 4.33523 24.3919 3.77933C24.6222 3.22343 24.6626 2.60709 24.5068 2.02589C24.3511 1.44469 24.0079 0.931125 23.5306 0.564833C23.0532 0.198542 22.4683 0 21.8666 0C21.2649 0 20.68 0.198542 20.2027 0.564833C19.7253 0.931125 19.3822 1.44469 19.2264 2.02589C19.0707 2.60709 19.1111 3.22343 19.3414 3.77933C19.5716 4.33523 19.9789 4.79961 20.5 5.10046V8.20006H15.0333C11.7712 8.20006 8.6426 9.49594 6.33591 11.8026C4.02922 14.1093 2.73333 17.2379 2.73333 20.5V21.8667C2.0084 21.8667 1.31317 22.1547 0.800574 22.6673C0.287975 23.1799 0 23.8751 0 24.6L0 30.0667C0 30.7916 0.287975 31.4868 0.800574 31.9994C1.31317 32.512 2.0084 32.8 2.73333 32.8V35.5333C2.73333 36.9832 3.30928 38.3737 4.33448 39.3988C5.35967 40.424 6.75014 41 8.19999 41H35.5333C36.9831 41 38.3736 40.424 39.3988 39.3988C40.424 38.3737 40.9999 36.9832 40.9999 35.5333V32.8C41.7249 32.8 42.4201 32.512 42.9327 31.9994C43.4453 31.4868 43.7333 30.7916 43.7333 30.0667V24.6C43.7333 23.8751 43.4453 23.1799 42.9327 22.6673C42.4201 22.1547 41.7249 21.8667 40.9999 21.8667V20.5C40.9999 17.2379 39.704 14.1093 37.3974 11.8026C35.0907 9.49594 31.9621 8.20006 28.7 8.20006H23.2333V5.10046ZM38.2666 20.5V35.5333C38.2666 36.2583 37.9786 36.9535 37.466 37.4661C36.9534 37.9787 36.2582 38.2667 35.5333 38.2667H8.19999C7.47506 38.2667 6.77983 37.9787 6.26723 37.4661C5.75463 36.9535 5.46666 36.2583 5.46666 35.5333V20.5C5.46666 17.9628 6.47457 15.5295 8.26866 13.7354C10.0628 11.9413 12.4961 10.9334 15.0333 10.9334H28.7C31.2372 10.9334 33.6705 11.9413 35.4646 13.7354C37.2587 15.5295 38.2666 17.9628 38.2666 20.5Z" fill="#141718"/>
</svg>
