 <svg width="17" height="24" viewBox="0 0 17 24" fill="none" xmlns="http://www.w3.org/2000/svg">
<mask id="path-1-inside-1_73_4646" fill="white">
<path d="M15.8373 11.3049H14.9373C14.8227 11.3064 14.7131 11.3516 14.6309 11.4314C14.5486 11.5112 14.5001 11.6195 14.4953 11.7339C14.3846 13.3426 13.6676 14.8494 12.4889 15.9498C11.3102 17.0502 9.75779 17.6622 8.14528 17.6622C6.53278 17.6622 4.98038 17.0502 3.8017 15.9498C2.62302 14.8494 1.90592 13.3426 1.79528 11.7339C1.79043 11.6195 1.74192 11.5112 1.65971 11.4314C1.5775 11.3516 1.46784 11.3064 1.35328 11.3049H0.453284C0.392519 11.3046 0.332319 11.3166 0.276297 11.3401C0.220276 11.3637 0.169588 11.3983 0.127279 11.4419C0.0849701 11.4855 0.0519116 11.5372 0.0300884 11.594C0.00826515 11.6507 -0.00187242 11.7112 0.000284127 11.7719C0.112933 13.6957 0.902094 15.5176 2.22826 16.9157C3.55443 18.3138 5.33219 19.1979 7.24728 19.4119V23.5529C7.24728 23.6715 7.29438 23.7852 7.37821 23.869C7.46204 23.9528 7.57573 23.9999 7.69428 23.9999H8.58928C8.70784 23.9999 8.82153 23.9528 8.90536 23.869C8.98919 23.7852 9.03628 23.6715 9.03628 23.5529V19.4119C10.9513 19.1978 12.729 18.3135 14.0551 16.9155C15.3812 15.5174 16.1704 13.6956 16.2833 11.7719C16.2854 11.7118 16.2755 11.6518 16.2541 11.5956C16.2327 11.5393 16.2003 11.4879 16.1587 11.4444C16.1172 11.4009 16.0673 11.3661 16.0121 11.3422C15.9569 11.3182 15.8975 11.3056 15.8373 11.3049Z"/>
</mask>
<path d="M15.8373 11.3049H14.9373C14.8227 11.3064 14.7131 11.3516 14.6309 11.4314C14.5486 11.5112 14.5001 11.6195 14.4953 11.7339C14.3846 13.3426 13.6676 14.8494 12.4889 15.9498C11.3102 17.0502 9.75779 17.6622 8.14528 17.6622C6.53278 17.6622 4.98038 17.0502 3.8017 15.9498C2.62302 14.8494 1.90592 13.3426 1.79528 11.7339C1.79043 11.6195 1.74192 11.5112 1.65971 11.4314C1.5775 11.3516 1.46784 11.3064 1.35328 11.3049H0.453284C0.392519 11.3046 0.332319 11.3166 0.276297 11.3401C0.220276 11.3637 0.169588 11.3983 0.127279 11.4419C0.0849701 11.4855 0.0519116 11.5372 0.0300884 11.594C0.00826515 11.6507 -0.00187242 11.7112 0.000284127 11.7719C0.112933 13.6957 0.902094 15.5176 2.22826 16.9157C3.55443 18.3138 5.33219 19.1979 7.24728 19.4119V23.5529C7.24728 23.6715 7.29438 23.7852 7.37821 23.869C7.46204 23.9528 7.57573 23.9999 7.69428 23.9999H8.58928C8.70784 23.9999 8.82153 23.9528 8.90536 23.869C8.98919 23.7852 9.03628 23.6715 9.03628 23.5529V19.4119C10.9513 19.1978 12.729 18.3135 14.0551 16.9155C15.3812 15.5174 16.1704 13.6956 16.2833 11.7719C16.2854 11.7118 16.2755 11.6518 16.2541 11.5956C16.2327 11.5393 16.2003 11.4879 16.1587 11.4444C16.1172 11.4009 16.0673 11.3661 16.0121 11.3422C15.9569 11.3182 15.8975 11.3056 15.8373 11.3049Z" fill="white"/>
<path d="M14.9373 11.3049V9.30494H14.9248L14.9123 9.30509L14.9373 11.3049ZM14.4953 11.7339L16.4906 11.8712L16.4924 11.8449L16.4935 11.8186L14.4953 11.7339ZM1.79528 11.7339L-0.202923 11.8186L-0.201809 11.8449L-0.200003 11.8712L1.79528 11.7339ZM1.35328 11.3049L1.37828 9.30509L1.36578 9.30494H1.35328V11.3049ZM0.453284 11.3049L0.443155 13.3049H0.453284V11.3049ZM0.000284127 11.7719L-1.99846 11.8429L-1.99764 11.8659L-1.9963 11.8889L0.000284127 11.7719ZM7.24728 19.4119H9.24728V17.623L7.46938 17.4243L7.24728 19.4119ZM7.24728 23.5529H9.24728H7.24728ZM8.58928 23.9999V25.9999V23.9999ZM9.03628 23.5529H11.0363H9.03628ZM9.03628 19.4119L8.81398 17.4243L7.03628 17.6232V19.4119H9.03628ZM16.2833 11.7719L18.2799 11.8891L18.2812 11.866L18.282 11.843L16.2833 11.7719ZM15.8373 9.30494H14.9373V13.3049H15.8373V9.30494ZM14.9123 9.30509C14.2863 9.31292 13.6871 9.56026 13.2379 9.99627L16.0238 12.8666C15.739 13.143 15.3591 13.2998 14.9623 13.3048L14.9123 9.30509ZM13.2379 9.99627C12.7887 10.4323 12.5236 11.0238 12.4971 11.6493L16.4935 11.8186C16.4767 12.2151 16.3086 12.5902 16.0238 12.8666L13.2379 9.99627ZM12.5 11.5967C12.4241 12.6999 11.9324 13.7332 11.124 14.4879L13.8537 17.4117C15.4028 15.9656 16.3452 13.9854 16.4906 11.8712L12.5 11.5967ZM11.124 14.4879C10.3157 15.2425 9.25111 15.6622 8.14528 15.6622V19.6622C10.2645 19.6622 12.3047 18.8579 13.8537 17.4117L11.124 14.4879ZM8.14528 15.6622C7.03946 15.6622 5.97485 15.2425 5.16653 14.4879L2.43686 17.4117C3.98591 18.8579 6.0261 19.6622 8.14528 19.6622V15.6622ZM5.16653 14.4879C4.35821 13.7332 3.86644 12.6999 3.79057 11.5967L-0.200003 11.8712C-0.0545999 13.9854 0.88782 15.9656 2.43686 17.4117L5.16653 14.4879ZM3.79349 11.6493C3.76699 11.0238 3.50188 10.4323 3.05266 9.99627L0.266756 12.8666C-0.0180462 12.5902 -0.186122 12.2151 -0.202923 11.8186L3.79349 11.6493ZM3.05266 9.99627C2.60344 9.56027 2.00426 9.31292 1.37828 9.30509L1.32829 13.3048C0.931423 13.2998 0.551548 13.143 0.266756 12.8666L3.05266 9.99627ZM1.35328 9.30494H0.453284V13.3049H1.35328V9.30494ZM0.463413 9.30496C0.133162 9.30329 -0.194002 9.36838 -0.498439 9.49629L1.05103 13.184C0.858639 13.2648 0.651876 13.306 0.443155 13.3049L0.463413 9.30496ZM-0.498439 9.49629C-0.802889 9.62422 -1.07835 9.81234 -1.30829 10.0494L1.56285 12.8344C1.41753 12.9843 1.24344 13.1032 1.05103 13.184L-0.498439 9.49629ZM-1.30829 10.0494C-1.53822 10.2864 -1.71788 10.5675 -1.83648 10.8757L1.89666 12.3122C1.82171 12.507 1.70816 12.6846 1.56285 12.8344L-1.30829 10.0494ZM-1.83648 10.8757C-1.95508 11.1839 -2.01018 11.5129 -1.99846 11.8429L1.99902 11.701C2.00643 11.9095 1.97161 12.1175 1.89666 12.3122L-1.83648 10.8757ZM-1.9963 11.8889C-1.85606 14.2836 -0.87367 16.5517 0.77722 18.2921L3.6793 15.5393C2.67786 14.4835 2.08193 13.1077 1.99686 11.655L-1.9963 11.8889ZM0.77722 18.2921C2.42811 20.0325 4.64118 21.1332 7.02519 21.3996L7.46938 17.4243C6.02321 17.2627 4.68075 16.595 3.6793 15.5393L0.77722 18.2921ZM5.24728 19.4119V23.5529H9.24728V19.4119H5.24728ZM5.24728 23.5529C5.24728 24.2019 5.50509 24.8243 5.96399 25.2832L8.79242 22.4548C9.08366 22.746 9.24728 23.1411 9.24728 23.5529H5.24728ZM5.96399 25.2832C6.4229 25.7421 7.04531 25.9999 7.69428 25.9999V21.9999C8.10616 21.9999 8.50117 22.1636 8.79242 22.4548L5.96399 25.2832ZM7.69428 25.9999H8.58928V21.9999H7.69428V25.9999ZM8.58928 25.9999C9.23826 25.9999 9.86067 25.7421 10.3196 25.2832L7.49115 22.4548C7.7824 22.1636 8.17741 21.9999 8.58928 21.9999V25.9999ZM10.3196 25.2832C10.7785 24.8243 11.0363 24.2019 11.0363 23.5529H7.03628C7.03628 23.1411 7.1999 22.746 7.49115 22.4548L10.3196 25.2832ZM11.0363 23.5529V19.4119H7.03628V23.5529H11.0363ZM9.25858 21.3995C11.6424 21.1329 13.8553 20.0322 15.5061 18.2919L12.604 15.5391C11.6026 16.5948 10.2601 17.2626 8.81398 17.4243L9.25858 21.3995ZM15.5061 18.2919C17.1569 16.5515 18.1394 14.2837 18.2799 11.8891L14.2867 11.6548C14.2015 13.1075 13.6055 14.4833 12.604 15.5391L15.5061 18.2919ZM18.282 11.843C18.2936 11.5161 18.2397 11.1903 18.1235 10.8846L14.3847 12.3066C14.3113 12.1134 14.2772 11.9075 14.2845 11.7009L18.282 11.843ZM18.1235 10.8846C18.0072 10.579 17.831 10.2996 17.6051 10.0631L14.7124 12.8257C14.5696 12.6763 14.4582 12.4997 14.3847 12.3066L18.1235 10.8846ZM17.6051 10.0631C17.3792 9.82658 17.1083 9.63767 16.8083 9.50749L15.2159 13.1769C15.0264 13.0946 14.8551 12.9752 14.7124 12.8257L17.6051 10.0631ZM16.8083 9.50749C16.5083 9.3773 16.1852 9.30847 15.8582 9.30505L15.8164 13.3048C15.6097 13.3027 15.4055 13.2592 15.2159 13.1769L16.8083 9.50749Z" fill="white" mask="url(#path-1-inside-1_73_4646)"/>
<path d="M8.14844 1C10.1245 1.00007 11.7266 2.60209 11.7266 4.57812V11.3037C11.7266 13.2797 10.1245 14.8818 8.14844 14.8818C6.17236 14.8818 4.57031 13.2798 4.57031 11.3037V4.57812C4.57031 2.60205 6.17236 1 8.14844 1Z" fill="white" stroke="white" stroke-width="2"/>
</svg>