<svg width="16" height="24" viewBox="0 0 21 20" fill="none" xmlns="http://www.w3.org/2000/svg">
<path d="M0.765625 0.600586C0.765524 0.582645 0.769866 0.565071 0.77832 0.549805C0.786854 0.534434 0.799343 0.522237 0.813477 0.513672C0.82758 0.505127 0.843458 0.500358 0.859375 0.5C0.875219 0.499683 0.890941 0.503888 0.905273 0.511719L0.90918 0.513672L19.5625 10.4971L19.5674 10.5C19.5828 10.5082 19.596 10.521 19.6055 10.5371C19.615 10.5534 19.6206 10.5723 19.6201 10.5918C19.6196 10.6112 19.6137 10.6298 19.6035 10.6455C19.5932 10.6612 19.5784 10.6733 19.5625 10.6807L19.5596 10.6826L0.905273 19.4912L0.901367 19.4932C0.88703 19.5001 0.870969 19.5029 0.855469 19.502C0.840051 19.501 0.825037 19.496 0.811523 19.4873C0.797931 19.4786 0.786466 19.4663 0.77832 19.4512C0.770199 19.4361 0.765486 19.419 0.765625 19.4014V12.4717C0.765635 12.4455 0.775278 12.4206 0.791992 12.4023C0.808682 12.3841 0.831566 12.3739 0.854492 12.3721H0.856445L15.751 11.123L15.7715 10.1289L0.852539 8.24902H0.850586C0.828459 8.24633 0.806877 8.23573 0.791016 8.21777C0.775083 8.19953 0.765506 8.17496 0.765625 8.14941V0.600586Z" fill="#6C63FF" stroke="#6C63FF"/>
</svg>